<svg xmlns="http://www.w3.org/2000/svg" xmlns:xlink="http://www.w3.org/1999/xlink" width="500" zoomAndPan="magnify" viewBox="0 0 375 374.999991" height="500" preserveAspectRatio="xMidYMid meet" version="1.0"><defs><g/><clipPath id="c107e70606"><path d="M 64.308594 20.695312 L 310.800781 20.695312 L 310.800781 267.183594 L 64.308594 267.183594 Z M 64.308594 20.695312 " clip-rule="nonzero"/></clipPath><clipPath id="825a24d7d4"><path d="M 94.441406 50.351562 L 280 50.351562 L 280 242.433594 L 94.441406 242.433594 Z M 94.441406 50.351562 " clip-rule="nonzero"/></clipPath><clipPath id="eb008b969d"><path d="M 89.699219 124 L 102 124 L 102 131 L 89.699219 131 Z M 89.699219 124 " clip-rule="nonzero"/></clipPath><clipPath id="e53e824dba"><path d="M 184 45.34375 L 192 45.34375 L 192 56 L 184 56 Z M 184 45.34375 " clip-rule="nonzero"/></clipPath><clipPath id="4115315c9f"><path d="M 273.546875 124.886719 L 285.03125 124.886719 L 285.03125 131 L 273.546875 131 Z M 273.546875 124.886719 " clip-rule="nonzero"/></clipPath></defs><g clip-path="url(#c107e70606)"><path fill="#4e8824" d="M 187.496094 267.066406 C 119.441406 267.066406 64.308594 211.554688 64.308594 143.878906 C 64.308594 76.203125 119.441406 20.695312 187.496094 20.695312 C 255.550781 20.695312 310.679688 75.824219 310.679688 143.878906 C 310.679688 211.9375 255.171875 267.066406 187.496094 267.066406 Z M 187.496094 28.296875 C 123.621094 28.296875 71.914062 80.003906 71.914062 143.878906 C 71.914062 207.753906 123.621094 259.460938 187.496094 259.460938 C 251.371094 259.460938 303.078125 207.753906 303.078125 143.878906 C 303.078125 80.003906 250.988281 28.296875 187.496094 28.296875 Z M 187.496094 28.296875 " fill-opacity="1" fill-rule="nonzero"/></g><g clip-path="url(#825a24d7d4)"><path fill="#4e8824" d="M 233.351562 133.351562 C 233.980469 133.34375 234.625 133.378906 235.25 133.382812 C 237.78125 133.332031 239.847656 133.363281 242.238281 134.3125 C 244.710938 135.347656 246.191406 137.253906 247.453125 139.546875 C 246.03125 137.664062 244.222656 135.976562 241.851562 135.449219 C 239.613281 135 237.679688 135.320312 235.460938 135.695312 C 225.953125 137.824219 219.605469 136.617188 212.640625 136.980469 C 203.316406 137.464844 196.375 143.496094 195.890625 153.082031 C 195.511719 160.542969 197.054688 172.496094 201.503906 178.527344 C 209.109375 188.824219 229.507812 183.78125 239.140625 182.152344 C 242.179688 181.636719 245.269531 181.40625 248.355469 181.480469 C 253.234375 181.8125 256.78125 183.300781 261.800781 183.613281 C 267.921875 183.867188 267.722656 184.464844 273.90625 182.988281 C 276.070312 182.507812 277.625 183.332031 279.84375 181.589844 C 277.757812 183.632812 276.246094 183.046875 274.125 183.746094 C 268.0625 185.734375 268.226562 185.6875 261.9375 185.929688 C 267.476562 188.867188 269.898438 190.292969 276.625 189.765625 C 271.238281 190.671875 268.371094 190.253906 263.335938 188.386719 C 257.171875 186.035156 254.300781 185.117188 247.589844 185.503906 C 246.148438 185.210938 243.058594 184.878906 241.117188 185.132812 C 247.589844 184.804688 252.867188 191.117188 259.007812 194.042969 C 265.007812 196.644531 266.601562 196.253906 272.824219 196.546875 C 266.359375 197.0625 264.90625 197.988281 258.257812 195.890625 C 254.1875 194.441406 250.902344 192.507812 247.550781 190.910156 C 235.605469 185.230469 226.25 195.085938 214.714844 192.261719 C 225.171875 196.058594 229.984375 190.4375 238.359375 192.101562 C 245.230469 193.878906 246.050781 196.457031 251.367188 198.546875 C 254.480469 199.527344 256.511719 199.183594 259.664062 198.949219 C 263.6875 198.730469 265.996094 199.097656 269.621094 200.972656 C 265.933594 199.429688 263.664062 199.300781 259.789062 199.984375 C 256.359375 200.609375 254.351562 201.183594 250.804688 200.421875 C 244.519531 198.675781 241.527344 195.332031 235.921875 195.394531 C 228.609375 195.480469 224.957031 201.082031 217.664062 199.800781 C 221 202.8125 227.214844 202.980469 233.417969 203.757812 C 237.914062 204.320312 242.210938 206.265625 246.332031 206.511719 C 248.671875 206.589844 249.707031 206.550781 252.027344 206.3125 C 253.808594 206.207031 255.515625 206.070312 257.308594 206.039062 C 258.308594 206.035156 259.257812 206.0625 260.253906 206.183594 C 261.007812 206.273438 261.761719 206.398438 262.433594 206.777344 L 264.503906 207.699219 L 264.09375 207.527344 C 264.027344 207.503906 263.375 207.296875 263.367188 207.3125 C 262.261719 206.964844 261.363281 206.675781 260.214844 206.691406 C 257.527344 206.726562 254.855469 207.199219 252.230469 207.753906 C 249.835938 208.261719 247.761719 208.71875 245.230469 208.648438 C 245.84375 209.269531 246.449219 209.964844 247.085938 210.738281 C 249.609375 213.800781 251.421875 214.554688 255.144531 215.707031 C 256.042969 215.992188 255.609375 216.207031 256.5625 216.261719 C 255.550781 216.292969 255.945312 216.121094 255.089844 215.945312 C 250.964844 215.296875 248.886719 214.839844 245.746094 211.90625 C 242.050781 208.359375 240.375 208.027344 236.132812 207.878906 C 236.679688 208.371094 237.136719 208.929688 237.570312 209.664062 C 238.339844 211.171875 238.453125 212.414062 238.234375 214.074219 C 238.105469 214.753906 237.933594 214.523438 238.046875 215.46875 C 238.265625 217.347656 239.484375 218.289062 241.132812 219.039062 C 243.753906 220.238281 246.597656 220.65625 248.480469 222.902344 C 247.433594 221.972656 246.164062 221.574219 244.820312 221.253906 C 244.199219 221.101562 240.882812 220.578125 240.632812 220.425781 C 239.046875 219.992188 237.929688 219.519531 236.789062 218.304688 C 236.675781 218.167969 236.566406 218.039062 236.472656 217.90625 C 234.742188 221.046875 232.894531 224.40625 235.195312 227.832031 C 236.214844 229.351562 237.359375 229.972656 237.542969 230.226562 C 237.558594 230.25 237.570312 230.277344 237.582031 230.300781 C 237.570312 230.292969 237.5625 230.289062 237.550781 230.285156 C 237.554688 230.285156 237.554688 230.289062 237.558594 230.289062 C 237.5625 230.285156 237.589844 230.34375 237.597656 230.359375 L 237.554688 230.375 L 237.3125 230.121094 C 235.539062 229.105469 234.03125 227.914062 233.265625 225.949219 C 232.632812 224.191406 232.648438 222.785156 232.96875 220.972656 C 233.277344 219.628906 234.980469 215.207031 235.148438 214 C 235.121094 213.6875 235.113281 213.371094 235.109375 213.03125 C 235.015625 211.734375 233.871094 210.90625 232.742188 210.425781 C 230.761719 209.632812 229.011719 209.265625 227.074219 208.425781 L 226.703125 208.425781 C 226.878906 209.535156 226.75 210.566406 226.355469 211.777344 C 225.632812 213.546875 224.675781 214.707031 223.285156 216.003906 C 222.429688 216.726562 222.148438 217.738281 222.148438 218.832031 C 222.171875 220.28125 222.542969 221.449219 223.402344 222.625 C 221.027344 220.808594 219.789062 217.113281 221.574219 214.480469 C 222.324219 213.363281 222.890625 212.277344 222.949219 210.917969 C 222.988281 210.128906 222.863281 209.554688 222.347656 208.941406 C 220.84375 207.355469 216.980469 207.75 214.914062 207.703125 C 210.484375 207.601562 205.734375 208.199219 203.816406 204.316406 C 203.722656 212.339844 218.339844 207.796875 218.742188 218.769531 C 214.125 209.738281 203.871094 216.214844 197.167969 207.125 C 196.375 205.894531 196.050781 204.976562 195.792969 203.546875 C 195.21875 199.957031 195.464844 197.703125 193.78125 194.21875 C 194.890625 197.722656 194.542969 200.128906 194.558594 203.671875 C 194.628906 205.363281 194.871094 206.484375 195.621094 208.019531 C 196.679688 210.121094 198.054688 211.519531 199.820312 213.050781 C 202.128906 215.078125 204.734375 216.652344 207.292969 218.300781 C 210.613281 222.519531 217.667969 224.496094 220.566406 227.515625 C 221.714844 228.769531 222.164062 229.855469 222.40625 231.519531 C 222.582031 233.714844 222.226562 235.746094 221.785156 237.886719 C 222.046875 234.957031 222.226562 230.574219 219.554688 228.589844 C 217.496094 227.195312 213.34375 225.972656 210.820312 224.828125 C 209.800781 224.335938 208.820312 223.84375 207.882812 223.304688 C 209.277344 226.691406 207.714844 230.039062 205.914062 232.953125 C 203.972656 236.035156 201.714844 238.882812 200.757812 242.433594 C 201.582031 235.261719 208.046875 229.222656 205.074219 223.925781 C 202.984375 220.214844 199.273438 218.230469 195.742188 216.265625 C 195.925781 217.445312 195.867188 218.621094 195.816406 219.875 C 195.25 227.597656 192.332031 227.355469 191.769531 234.851562 C 191.761719 235.320312 191.699219 235.480469 191.792969 235.976562 C 191.660156 235.484375 191.65625 235.351562 191.636719 234.851562 C 191.574219 227.910156 193.902344 226.648438 193.828125 219.875 C 193.769531 218.539062 193.734375 217.003906 193.042969 215.8125 C 192.898438 215.328125 189.691406 212.875 186.761719 210.144531 C 183.796875 207.386719 182.816406 205.371094 184.285156 200.128906 C 181.464844 203.355469 180.851562 207.484375 181.609375 211.597656 C 181.816406 212.707031 182.164062 213.867188 182.683594 215.082031 C 183.171875 216.230469 183.886719 217.402344 184.855469 218.933594 C 185.429688 219.863281 185.84375 220.636719 186.171875 221.6875 C 186.480469 222.839844 186.519531 223.707031 186.351562 224.886719 C 186.25 223.757812 186.015625 222.980469 185.4375 222.007812 C 184.914062 221.167969 184.375 220.585938 183.664062 219.902344 C 183.320312 219.585938 183 219.296875 182.6875 219.019531 C 182.707031 219.621094 182.707031 220.226562 182.683594 220.835938 C 181.484375 230.707031 175.769531 227.289062 174.925781 238.316406 C 174.195312 227.277344 179.207031 228.78125 179.085938 220.835938 C 178.351562 211.976562 171.765625 204.109375 179.117188 195.980469 C 180.289062 194.730469 181.511719 193.589844 182.621094 192.277344 C 183.867188 190.734375 184.554688 189.523438 185.023438 187.585938 C 184.457031 189.191406 183.394531 190.679688 182.105469 191.800781 C 180.835938 192.941406 179.46875 193.90625 178.152344 194.984375 C 176.535156 196.332031 175.492188 197.414062 174.433594 199.25 C 172.863281 202.113281 172.363281 204.550781 172.859375 207.796875 C 173.136719 209.597656 173.59375 211.566406 173.691406 214.042969 C 173.835938 217.773438 171.539062 220.976562 169.414062 223.925781 C 168.589844 225.070312 168.316406 226.21875 168.453125 227.617188 C 168.898438 232.203125 173.078125 236.777344 173.726562 242.433594 C 172.011719 236.066406 165.488281 231.167969 166.109375 225.277344 C 166.195312 224.53125 166.347656 223.925781 166.601562 223.304688 C 165.667969 223.84375 164.6875 224.335938 163.664062 224.828125 C 161.144531 225.972656 156.988281 227.195312 154.933594 228.589844 C 152.257812 230.574219 152.4375 234.957031 152.699219 237.886719 C 152.257812 235.746094 151.90625 233.714844 152.078125 231.519531 C 152.324219 229.855469 152.769531 228.769531 153.917969 227.515625 C 157.09375 224.210938 165.238281 222.15625 168.03125 217.046875 C 169.199219 214.902344 168.472656 213.1875 167.453125 211.117188 C 167.113281 211.738281 166.710938 212.292969 166.195312 212.902344 C 164.265625 215.097656 161.800781 214.554688 159.519531 215.65625 C 157.761719 216.550781 156.90625 217.164062 155.746094 218.769531 C 156.566406 216.871094 157.253906 215.988281 158.890625 214.691406 C 160.921875 213.128906 163.085938 212.964844 163.960938 211.34375 C 166.039062 207.492188 162.152344 203.835938 164.582031 199.757812 C 162.632812 202.367188 163.039062 204.207031 163.023438 205.535156 C 159.019531 208.527344 151.347656 206.75 151.535156 210.917969 C 151.65625 213.695312 153.484375 214.292969 153.734375 216.703125 C 153.964844 218.9375 152.855469 221.269531 151.085938 222.625 C 152.179688 221.117188 152.757812 218.890625 152.015625 217.101562 C 151.816406 216.640625 151.601562 216.3125 151.203125 216.003906 C 149.8125 214.707031 148.851562 213.546875 148.132812 211.777344 C 147.734375 210.566406 147.609375 209.535156 147.785156 208.425781 C 145.730469 209.683594 139.601562 209.863281 139.378906 213.03125 C 139.359375 215.84375 140.890625 218.246094 141.515625 220.972656 C 142.046875 223.582031 141.65625 226.222656 139.769531 228.203125 C 138.597656 229.429688 137.140625 230.074219 136.988281 230.257812 C 136.957031 230.296875 136.945312 230.324219 136.929688 230.375 L 136.890625 230.359375 C 136.894531 230.34375 136.925781 230.285156 136.929688 230.289062 C 136.929688 230.289062 136.933594 230.285156 136.933594 230.285156 C 136.925781 230.289062 136.914062 230.292969 136.90625 230.300781 C 136.914062 230.277344 136.929688 230.25 136.945312 230.226562 C 137.15625 229.929688 139.667969 228.433594 140.230469 225.65625 C 140.796875 222.847656 139.351562 220.332031 138.015625 217.90625 C 137.917969 218.039062 137.8125 218.167969 137.695312 218.304688 C 136.558594 219.519531 135.4375 219.992188 133.855469 220.425781 C 133.605469 220.578125 130.285156 221.101562 129.664062 221.253906 C 128.324219 221.574219 127.054688 221.972656 126.007812 222.902344 C 127.886719 220.65625 130.730469 220.238281 133.355469 219.039062 C 135 218.289062 136.21875 217.347656 136.441406 215.46875 C 136.550781 214.523438 136.382812 214.753906 136.25 214.074219 C 136.035156 212.414062 136.144531 211.171875 136.914062 209.664062 C 137.347656 208.929688 137.804688 208.371094 138.351562 207.878906 C 134.109375 208.027344 132.4375 208.359375 128.738281 211.90625 C 126.238281 214.242188 121.34375 216.355469 117.921875 216.261719 C 120.753906 216.09375 125.5625 212.96875 127.398438 210.738281 C 128.039062 209.964844 128.640625 209.269531 129.257812 208.648438 C 126.726562 208.71875 124.648438 208.261719 122.253906 207.753906 C 117.480469 206.742188 113.359375 206.289062 110.207031 207.601562 C 112.128906 206.523438 113.957031 206.03125 117.179688 206.039062 C 118.96875 206.070312 120.679688 206.207031 122.457031 206.3125 C 124.777344 206.550781 125.8125 206.589844 128.15625 206.511719 C 132.277344 206.265625 136.621094 204.363281 141.117188 203.796875 C 147.320312 203.019531 154.367188 202.808594 156.875 199.839844 C 149.578125 200.621094 145.929688 195.519531 138.617188 195.433594 C 133.007812 195.371094 130.019531 198.71875 123.734375 200.460938 C 120.183594 201.222656 118.179688 200.648438 114.75 200.023438 C 110.871094 199.34375 108.605469 199.472656 104.917969 201.011719 C 108.542969 199.136719 110.851562 198.769531 114.871094 198.988281 C 118.027344 199.222656 120.058594 199.570312 123.167969 198.585938 C 128.484375 196.496094 129.304688 193.917969 136.179688 192.140625 C 144.554688 190.476562 149.363281 196.097656 159.820312 192.300781 C 148.289062 195.125 138.925781 185.269531 126.988281 190.953125 C 123.632812 192.550781 120.347656 194.480469 116.28125 195.929688 C 109.628906 198.03125 108.175781 197.105469 101.710938 196.585938 C 107.933594 196.292969 109.53125 196.683594 115.53125 194.082031 C 121.667969 191.15625 126.945312 184.84375 133.417969 185.171875 C 131.476562 184.917969 128.390625 185.25 126.949219 185.542969 C 120.234375 185.160156 117.363281 186.074219 111.203125 188.429688 C 106.167969 190.296875 103.296875 190.710938 97.910156 189.804688 C 104.640625 190.332031 107.058594 188.90625 112.601562 185.96875 C 106.308594 185.726562 106.472656 185.773438 100.414062 183.785156 C 98.289062 183.085938 96.777344 183.671875 94.691406 181.628906 C 96.910156 183.375 98.464844 182.550781 100.628906 183.027344 C 106.8125 184.507812 106.613281 183.90625 112.738281 183.652344 C 117.757812 183.339844 121.300781 181.851562 126.179688 181.519531 C 129.265625 181.445312 132.355469 181.679688 135.390625 182.191406 C 145.125 183.835938 165.835938 188.964844 173.253906 178.253906 C 177.539062 172.066406 179.042969 160.609375 178.664062 153.121094 C 178.179688 143.53125 171.238281 137.503906 161.914062 137.011719 C 154.949219 136.652344 148.597656 137.863281 139.09375 135.730469 C 136.875 135.355469 134.941406 135.039062 132.703125 135.484375 C 130.332031 136.015625 128.523438 137.699219 127.101562 139.582031 C 128.359375 137.289062 129.839844 135.382812 132.316406 134.347656 C 135.269531 133.175781 138.226562 133.417969 141.316406 133.417969 C 142.65625 134.007812 144.605469 134.628906 146.265625 134.449219 C 142.871094 134.21875 141.011719 132.039062 138.71875 130.179688 C 137.03125 128.808594 135.390625 127.433594 133.691406 126.246094 C 132.398438 125.363281 131.113281 124.554688 129.574219 124.175781 C 128.644531 123.996094 127.910156 124.042969 126.984375 124.21875 C 124.886719 124.652344 122.695312 126.261719 121.445312 128.035156 C 120.40625 129.621094 120.429688 131.949219 118.253906 133.644531 C 116.582031 134.839844 114.738281 135.40625 112.773438 135.933594 C 112.046875 136.085938 108.863281 137.871094 108.390625 138.613281 C 108.792969 137.746094 111.804688 135.632812 112.582031 135.308594 C 114.296875 134.679688 116.042969 133.957031 117.335938 132.621094 C 118.90625 130.984375 118.5 129.527344 119.375 127.375 C 118.65625 127.726562 117.9375 128.066406 117.203125 128.394531 C 113.75 129.898438 110.003906 130.871094 106.46875 129.054688 C 103.320312 127.441406 102.542969 124.972656 99.199219 123.117188 C 102.785156 124.667969 103.414062 127.003906 106.773438 128.390625 C 110.160156 129.792969 113.441406 128.597656 116.511719 126.96875 C 119.550781 125.355469 123.15625 122.765625 126.402344 121.855469 C 129.824219 120.894531 132.367188 121.898438 135.34375 123.65625 C 138.863281 125.730469 142.378906 128.652344 145.914062 130.480469 C 147.355469 131.210938 148.710938 131.792969 150.339844 131.890625 C 157.582031 132.097656 160.925781 130.957031 168.671875 131.898438 C 170.378906 132.171875 172.46875 132.695312 173.847656 133.851562 C 174.527344 134.398438 175.421875 135.25 175.757812 136.078125 C 175.664062 135.324219 174.644531 134.0625 174.128906 133.53125 C 170.632812 129.953125 163.179688 130.066406 158.621094 127.859375 C 155.75 126.183594 151.601562 125.855469 147.191406 123.140625 C 144.683594 121.417969 143.601562 120.136719 141.96875 117.652344 C 140.957031 116.160156 140.421875 115.332031 138.714844 114.59375 C 135.917969 113.441406 132.179688 113.582031 129.179688 113.929688 C 126.789062 114.238281 124.378906 114.601562 121.980469 114.804688 C 119.597656 115.027344 117.3125 115.148438 114.976562 114.535156 C 113.496094 114.117188 112.640625 113.632812 111.550781 112.566406 C 108.9375 109.800781 108.664062 108.878906 104.695312 107.535156 C 108.777344 108.699219 109.082031 109.558594 111.96875 112.109375 C 113.03125 112.992188 113.816406 113.363281 115.171875 113.660156 C 117.398438 114.007812 119.59375 113.75 121.804688 113.429688 C 125.222656 112.875 128.605469 111.914062 132.167969 111.570312 C 129.792969 109.285156 128.921875 105.59375 128.546875 102.40625 C 128.136719 98.285156 128.636719 94.472656 128.195312 90.480469 C 127.898438 88.472656 127.449219 87.078125 126.328125 85.367188 C 124.851562 83.253906 123.214844 82.0625 120.972656 80.828125 C 125.398438 82.839844 128.242188 85.386719 129.355469 90.261719 C 130.527344 95.382812 129.773438 102.515625 132.710938 107.382812 C 133.296875 108.339844 133.839844 109 134.804688 109.585938 C 136.578125 110.613281 138.636719 110.480469 140.574219 111.230469 C 138.472656 106.78125 138.507812 103.117188 141.332031 98.9375 C 141.976562 97.996094 142.128906 97.148438 142.132812 96.027344 C 142.105469 92.410156 139.699219 88.210938 138.707031 84.476562 C 138.324219 83.070312 137.796875 81.390625 138.160156 79.933594 C 138.492188 78.832031 139.304688 77.359375 139.761719 76.128906 C 139.441406 77.207031 138.703125 79 138.554688 80.007812 C 138.457031 81.292969 139.117188 83.019531 139.523438 84.222656 C 140.507812 86.691406 141.914062 89.0625 142.984375 91.574219 C 143.578125 93.042969 143.996094 94.300781 144.199219 95.886719 C 144.347656 97.535156 144.195312 98.761719 143.398438 100.234375 C 142.492188 101.882812 142.003906 103.238281 142.121094 105.132812 C 142.257812 106.617188 142.675781 107.644531 143.371094 108.941406 C 145.320312 112.46875 146.714844 117.121094 149.777344 118.902344 C 153.925781 120.992188 157.28125 120.855469 161.273438 122.351562 C 164.722656 123.5 169.125 123.398438 173.457031 124.730469 C 177.082031 125.921875 179.863281 127.996094 181.964844 131.03125 C 181.753906 132.609375 181.695312 134.429688 181.964844 135.777344 C 181.921875 131.371094 185.207031 127.359375 184.574219 124.179688 C 184.277344 122.675781 182.636719 121.582031 181.363281 120.945312 C 177.152344 118.921875 172.007812 117.3125 168.25 114.8125 C 167.246094 114.09375 166.035156 112.679688 165.199219 112.25 C 163.558594 111.449219 161.945312 110.835938 160.195312 110.324219 C 158.425781 109.910156 156.835938 109.4375 155.367188 108.328125 C 154.363281 107.570312 153.597656 106.5 153.523438 105.21875 C 153.375 102.691406 155.285156 100.488281 155.113281 99.054688 C 154.902344 97.304688 152.421875 95.042969 151.449219 92.144531 C 150.976562 90.621094 150.890625 89.46875 151.085938 87.886719 C 151.148438 90.804688 152.25 92.570312 154.160156 94.65625 C 155.648438 96.277344 157.53125 97.941406 157.15625 100.371094 C 156.960938 101.507812 156.21875 103.808594 156.476562 104.800781 C 156.792969 105.875 160 106.191406 160.851562 106.28125 C 161.464844 106.339844 162.066406 106.417969 162.660156 106.515625 C 162.089844 104.527344 161.796875 102.546875 161.535156 100.367188 C 161.222656 97.253906 161.132812 94.558594 161.578125 91.671875 C 162.613281 80.066406 158.585938 81.832031 157.351562 73.054688 C 157.113281 71.359375 157.242188 71.007812 156.015625 69.589844 C 152.765625 65.960938 145.910156 64.886719 146.46875 60.882812 C 146.464844 62.183594 147.191406 63 148.273438 63.660156 C 150.789062 65.191406 154.835938 65.917969 157.523438 68.300781 C 158.105469 65.183594 159.414062 62.375 161.046875 59.46875 C 161.898438 57.960938 162.769531 56.570312 163.796875 55.179688 L 165.054688 53.507812 C 163.9375 55.367188 162.652344 57.941406 161.859375 59.863281 C 160.089844 64.289062 158.613281 69.152344 160.378906 73.808594 C 161.921875 77.867188 164.171875 79.0625 165.617188 82.375 L 166.089844 81.851562 C 169.910156 78.148438 173.75 76.914062 178.632812 75.1875 C 183.085938 73.601562 186.714844 72.335938 189.925781 68.683594 C 191.664062 66.492188 192.410156 64.550781 192.949219 61.820312 C 193.667969 57.871094 193.421875 54.472656 192.84375 50.527344 C 193.714844 54.484375 194.230469 57.898438 193.925781 61.957031 C 193.566406 64.960938 192.921875 67.121094 191.265625 69.671875 C 188.085938 73.980469 184.441406 75.675781 179.707031 77.832031 C 175.71875 79.640625 172.042969 81.132812 169.125 84.53125 C 167.996094 86.003906 167.390625 87.296875 166.964844 88.925781 C 166.070312 92.277344 166.503906 96.335938 167.089844 99.542969 C 167.542969 101.933594 168.078125 104.316406 169.304688 106.445312 C 170.046875 107.695312 170.675781 108.335938 171.929688 109.0625 C 173.863281 110.03125 176.617188 110.898438 179.339844 111.765625 C 179.96875 112.125 180.78125 112.597656 182.074219 113.8125 C 181.980469 113.492188 180.21875 111.433594 179.742188 111 C 180.710938 106.675781 184.105469 103.195312 187.011719 100.03125 C 189.425781 97.417969 191.417969 95.226562 192.757812 91.867188 C 193.40625 90.046875 193.59375 88.640625 193.457031 86.710938 C 193.261719 84.199219 192.585938 82.335938 191.453125 80.105469 C 194.265625 83.835938 195.988281 87.703125 195.277344 92.453125 C 194.5625 96.574219 192.972656 99.347656 190.867188 102.867188 C 189.285156 105.484375 185.917969 110.234375 187.175781 113.441406 C 187.644531 114.523438 188.304688 115.328125 189.109375 116.171875 C 189.351562 116.367188 189.59375 116.578125 189.839844 116.796875 C 192.726562 119.507812 194.632812 123.871094 192.429688 127.539062 C 191.503906 128.96875 191.03125 129.542969 190.871094 131.332031 C 191.210938 129.59375 191.757812 129.117188 192.859375 127.855469 C 193.757812 126.816406 194.179688 125.933594 194.375 124.847656 C 195.34375 124.132812 196.300781 123.378906 197.25 122.554688 C 199.875 120.164062 201.636719 118.066406 202.652344 114.609375 C 203.789062 110.261719 201.792969 106.316406 201.726562 101.972656 C 201.722656 99.929688 201.996094 98.457031 202.765625 96.570312 C 203.578125 94.503906 204.421875 92.886719 204.566406 91.132812 C 204.761719 87.5625 202.601562 82.863281 202.222656 78.886719 C 202.019531 76.25 202.285156 74.421875 203.339844 71.988281 C 202.816406 74.449219 202.945312 76.183594 203.703125 78.566406 C 204.960938 82.355469 207.480469 85.472656 208.578125 89.539062 L 209.113281 89.113281 C 211.515625 87.316406 213.96875 85.847656 216.453125 84.195312 C 221.351562 80.804688 222.789062 76.460938 222.917969 70.726562 C 222.984375 67.875 222.582031 63.445312 223.292969 60.808594 C 223.535156 59.9375 223.808594 59.304688 224.375 58.597656 C 223.453125 60.121094 223.425781 61.964844 223.5625 63.695312 C 223.773438 66.023438 224.179688 68.324219 224.40625 70.664062 C 224.667969 73.613281 224.652344 75.859375 223.902344 78.753906 C 222.867188 82.28125 221.3125 84.476562 218.570312 86.90625 C 215.429688 89.65625 209.847656 93.570312 208.300781 97.472656 C 207.730469 98.910156 207.480469 99.816406 207.734375 101.554688 C 208.140625 104.363281 209.773438 107.464844 210.214844 111.191406 C 210.746094 110.730469 211.261719 110.207031 211.800781 109.597656 C 214.460938 106.417969 215.578125 102.082031 217.59375 98.703125 C 218.761719 96.789062 219.8125 95.582031 221.726562 94.386719 C 220.179688 95.890625 219.472656 97.210938 218.796875 99.238281 C 218.203125 101.179688 217.875 103.121094 217.460938 105.105469 C 216.941406 107.585938 216.421875 109.476562 215.292969 111.773438 C 213.816406 114.675781 212.222656 116.472656 209.644531 118.457031 C 209.265625 119.890625 208.78125 121.191406 208.183594 122.425781 C 207.097656 123.003906 205.941406 123.382812 204.78125 123.835938 C 204.066406 124.121094 203.445312 124.394531 202.804688 124.828125 C 202.242188 125.222656 201.871094 125.59375 201.613281 126.246094 C 201.945312 125.65625 202.34375 125.351562 202.933594 125.039062 C 203.597656 124.714844 204.238281 124.53125 204.949219 124.347656 C 207.546875 123.714844 211.046875 123.140625 213.421875 122.351562 C 217.414062 120.855469 220.773438 120.992188 224.921875 118.902344 C 227.984375 117.121094 229.378906 112.46875 231.328125 108.941406 C 232.023438 107.644531 232.445312 106.617188 232.578125 105.132812 C 232.695312 103.238281 232.207031 101.882812 231.304688 100.234375 C 230.503906 98.761719 230.347656 97.535156 230.5 95.886719 C 230.703125 94.300781 231.117188 93.042969 231.714844 91.574219 C 232.78125 89.0625 234.1875 86.691406 235.175781 84.222656 C 235.578125 83.019531 236.242188 81.292969 236.140625 80.007812 C 235.996094 79 235.257812 77.207031 234.9375 76.128906 C 235.390625 77.359375 236.207031 78.832031 236.539062 79.933594 C 237.292969 82.675781 234.128906 89.386719 233.273438 92.140625 C 232.875 93.464844 232.59375 94.636719 232.566406 96.027344 C 232.570312 97.148438 232.722656 97.996094 233.371094 98.9375 C 236.191406 103.117188 236.222656 106.78125 234.128906 111.230469 C 237.128906 110.066406 239.816406 110.976562 241.988281 107.382812 C 244.925781 102.515625 244.171875 95.382812 245.34375 90.261719 C 246.457031 85.386719 249.296875 82.839844 253.726562 80.828125 C 251.484375 82.0625 249.847656 83.253906 248.371094 85.367188 C 247.25 87.078125 246.800781 88.472656 246.5 90.480469 C 246.0625 94.472656 246.566406 98.285156 246.152344 102.40625 C 245.777344 105.59375 244.90625 109.285156 242.53125 111.570312 C 246.09375 111.914062 249.476562 112.875 252.894531 113.429688 C 255.105469 113.75 257.300781 114.007812 259.523438 113.660156 C 260.882812 113.363281 261.664062 112.992188 262.730469 112.109375 C 265.617188 109.558594 265.921875 108.699219 270.003906 107.535156 C 266.035156 108.878906 265.757812 109.800781 263.148438 112.566406 C 262.058594 113.632812 261.203125 114.117188 259.722656 114.535156 C 257.386719 115.148438 255.097656 115.027344 252.714844 114.804688 C 250.320312 114.601562 247.90625 114.238281 245.523438 113.929688 C 242.519531 113.582031 238.78125 113.441406 235.984375 114.59375 C 234.277344 115.332031 233.742188 116.160156 232.730469 117.652344 C 231.09375 120.136719 230.011719 121.417969 227.507812 123.140625 C 220.414062 127.503906 211.789062 128.46875 204.167969 131.425781 C 203.144531 131.792969 202.195312 132.332031 201.191406 133.078125 C 200.554688 133.558594 200.023438 134.027344 199.5 134.632812 C 199.269531 134.894531 198.886719 135.332031 198.792969 135.675781 C 198.898438 135.457031 199.425781 134.875 199.609375 134.742188 C 200.199219 134.234375 200.765625 133.832031 201.433594 133.429688 C 207.519531 130.121094 217.472656 132.085938 224.355469 131.890625 C 227.484375 131.753906 231.496094 128.945312 234.007812 127.207031 C 236.945312 125.175781 241.136719 122 244.703125 121.539062 C 247.125 121.222656 249.546875 122.140625 251.664062 123.238281 C 255.667969 125.316406 260.171875 128.894531 264.648438 129.015625 C 267.304688 129.085938 269.511719 127.820312 271.390625 126.035156 C 272.699219 124.78125 273.824219 123.839844 275.496094 123.117188 C 272.15625 124.972656 271.375 127.441406 268.230469 129.054688 C 264.695312 130.871094 260.949219 129.898438 257.492188 128.394531 C 256.761719 128.066406 256.042969 127.726562 255.324219 127.375 C 256.195312 129.527344 255.789062 130.984375 257.363281 132.621094 C 258.660156 133.957031 260.402344 134.679688 262.121094 135.308594 C 262.894531 135.632812 265.90625 137.746094 266.3125 138.613281 C 265.835938 137.871094 262.648438 136.085938 261.925781 135.933594 C 259.960938 135.40625 258.117188 134.839844 256.445312 133.644531 C 254.269531 131.949219 254.292969 129.621094 253.253906 128.035156 C 252 126.261719 249.8125 124.652344 247.714844 124.21875 C 246.785156 124.042969 246.054688 123.996094 245.121094 124.175781 C 242.304688 124.796875 238.410156 128.222656 236.136719 130.066406 C 233.9375 131.84375 231.953125 133.726562 228.871094 133.046875 C 228.898438 133.042969 229.914062 133.710938 233.351562 133.351562 " fill-opacity="1" fill-rule="evenodd"/></g><path fill="#869677" d="M 96.46875 140.65625 C 96.097656 138.183594 96.660156 135.566406 98.238281 133.378906 C 99.820312 131.191406 102.128906 129.835938 104.59375 129.414062 C 104.964844 131.886719 104.402344 134.5 102.824219 136.691406 C 101.242188 138.878906 98.933594 140.230469 96.46875 140.65625 " fill-opacity="1" fill-rule="evenodd"/><path fill="#869677" d="M 117.46875 146.941406 C 115.835938 145.738281 114.660156 143.917969 114.308594 141.757812 C 113.960938 139.597656 114.511719 137.5 115.679688 135.839844 C 117.3125 137.046875 118.492188 138.867188 118.839844 141.027344 C 119.1875 143.1875 118.636719 145.285156 117.46875 146.941406 " fill-opacity="1" fill-rule="evenodd"/><path fill="#4e8824" d="M 114.976562 132.75 C 113.914062 133.707031 112.492188 134.261719 110.953125 134.199219 C 109.414062 134.136719 108.042969 133.464844 107.066406 132.421875 C 108.125 131.46875 109.546875 130.910156 111.085938 130.972656 C 112.625 131.039062 113.996094 131.710938 114.976562 132.75 " fill-opacity="1" fill-rule="evenodd"/><path fill="#4e8824" d="M 105.699219 118.675781 C 104.847656 120.21875 104.578125 122.085938 105.085938 123.921875 C 105.597656 125.753906 106.792969 127.214844 108.320312 128.097656 C 109.167969 126.554688 109.4375 124.6875 108.929688 122.855469 C 108.417969 121.019531 107.222656 119.558594 105.699219 118.675781 " fill-opacity="1" fill-rule="evenodd"/><g clip-path="url(#eb008b969d)"><path fill="#4e8824" d="M 101.460938 125.660156 C 100.570312 127.707031 98.910156 129.421875 96.679688 130.328125 C 94.445312 131.234375 92.058594 131.167969 89.992188 130.320312 C 90.882812 128.273438 92.542969 126.558594 94.777344 125.652344 C 97.007812 124.742188 99.394531 124.8125 101.460938 125.660156 " fill-opacity="1" fill-rule="evenodd"/></g><path fill="#869677" d="M 99.253906 122.238281 C 99.792969 120.375 99.628906 118.308594 98.640625 116.464844 C 97.648438 114.625 96.011719 113.351562 94.160156 112.769531 C 93.625 114.632812 93.789062 116.699219 94.777344 118.542969 C 95.769531 120.386719 97.40625 121.660156 99.253906 122.238281 " fill-opacity="1" fill-rule="evenodd"/><path fill="#4e8824" d="M 107.898438 139.324219 C 106.539062 139.761719 105.339844 140.703125 104.617188 142.066406 C 103.894531 143.425781 103.78125 144.949219 104.1875 146.320312 C 105.546875 145.886719 106.746094 144.941406 107.46875 143.578125 C 108.191406 142.21875 108.300781 140.695312 107.898438 139.324219 " fill-opacity="1" fill-rule="evenodd"/><path fill="#4e8824" d="M 161.664062 69.714844 C 163.664062 70.144531 165.820312 69.824219 167.6875 68.644531 C 169.546875 67.46875 170.765625 65.65625 171.238281 63.671875 C 169.242188 63.242188 167.082031 63.566406 165.21875 64.742188 C 163.355469 65.917969 162.136719 67.730469 161.664062 69.714844 " fill-opacity="1" fill-rule="evenodd"/><path fill="#4e8824" d="M 159.019531 60.34375 C 159.75 58.707031 159.859375 56.792969 159.1875 54.980469 C 158.511719 53.171875 157.175781 51.796875 155.554688 51.03125 C 154.828125 52.671875 154.714844 54.582031 155.386719 56.394531 C 156.0625 58.207031 157.402344 59.582031 159.019531 60.34375 " fill-opacity="1" fill-rule="evenodd"/><path fill="#4e8824" d="M 148.230469 62.46875 C 147.28125 60.945312 146.902344 59.070312 147.320312 57.179688 C 147.738281 55.292969 148.871094 53.75 150.371094 52.765625 C 151.316406 54.289062 151.695312 56.167969 151.277344 58.054688 C 150.859375 59.941406 149.726562 61.488281 148.230469 62.46875 " fill-opacity="1" fill-rule="evenodd"/><path fill="#869677" d="M 185.476562 82.71875 C 184.945312 84.644531 185.140625 86.773438 186.1875 88.660156 C 187.234375 90.542969 188.9375 91.835938 190.851562 92.40625 C 191.378906 90.480469 191.183594 88.351562 190.140625 86.464844 C 189.09375 84.578125 187.390625 83.289062 185.476562 82.71875 " fill-opacity="1" fill-rule="evenodd"/><path fill="#4e8824" d="M 181.921875 90.34375 C 180.839844 92.023438 180.386719 94.113281 180.824219 96.222656 C 181.253906 98.335938 182.492188 100.078125 184.148438 101.199219 C 185.230469 99.515625 185.679688 97.429688 185.25 95.316406 C 184.8125 93.203125 183.578125 91.460938 181.921875 90.34375 " fill-opacity="1" fill-rule="evenodd"/><path fill="#4e8824" d="M 198.25 76.765625 C 199.015625 78.132812 199.269531 79.789062 198.832031 81.421875 C 198.390625 83.054688 197.339844 84.359375 195.992188 85.15625 C 195.222656 83.792969 194.96875 82.136719 195.40625 80.5 C 195.847656 78.867188 196.898438 77.5625 198.25 76.765625 " fill-opacity="1" fill-rule="evenodd"/><path fill="#4e8824" d="M 202.566406 89.859375 C 202.664062 91.855469 202.015625 93.886719 200.585938 95.503906 C 199.15625 97.121094 197.214844 98.011719 195.222656 98.15625 C 195.125 96.160156 195.773438 94.121094 197.203125 92.511719 C 198.632812 90.894531 200.574219 90 202.566406 89.859375 " fill-opacity="1" fill-rule="evenodd"/><path fill="#869677" d="M 188.90625 67.335938 C 186.480469 66.410156 184.402344 64.570312 183.234375 62.027344 C 182.0625 59.484375 182.019531 56.710938 182.890625 54.265625 C 185.3125 55.191406 187.390625 57.03125 188.5625 59.574219 C 189.734375 62.117188 189.777344 64.890625 188.90625 67.335938 " fill-opacity="1" fill-rule="evenodd"/><path fill="#4e8824" d="M 195.757812 63.703125 C 198.285156 64.296875 201.035156 63.945312 203.433594 62.5 C 205.832031 61.054688 207.425781 58.785156 208.082031 56.273438 C 205.554688 55.679688 202.804688 56.03125 200.402344 57.476562 C 198.003906 58.921875 196.410156 61.191406 195.757812 63.703125 " fill-opacity="1" fill-rule="evenodd"/><path fill="#4e8824" d="M 140.804688 96.445312 C 138.789062 96.613281 136.710938 96.027344 135.027344 94.640625 C 133.34375 93.25 132.375 91.320312 132.160156 89.308594 C 134.171875 89.136719 136.253906 89.726562 137.9375 91.113281 C 139.617188 92.503906 140.589844 94.4375 140.804688 96.445312 " fill-opacity="1" fill-rule="evenodd"/><path fill="#4e8824" d="M 138.011719 85.832031 C 136.023438 86.199219 133.894531 85.8125 132.085938 84.59375 C 130.277344 83.375 129.125 81.546875 128.71875 79.566406 C 130.707031 79.203125 132.832031 79.585938 134.644531 80.804688 C 136.449219 82.023438 137.601562 83.851562 138.011719 85.832031 " fill-opacity="1" fill-rule="evenodd"/><path fill="#869677" d="M 142.425781 87.898438 C 144.238281 87.007812 145.71875 85.433594 146.445312 83.375 C 147.171875 81.320312 147.007812 79.164062 146.15625 77.328125 C 144.34375 78.222656 142.859375 79.796875 142.136719 81.851562 C 141.410156 83.914062 141.574219 86.066406 142.425781 87.898438 " fill-opacity="1" fill-rule="evenodd"/><path fill="#4e8824" d="M 140.859375 76.757812 C 142.816406 76.238281 144.574219 74.980469 145.683594 73.101562 C 146.796875 71.226562 147.054688 69.078125 146.574219 67.117188 C 144.621094 67.640625 142.863281 68.894531 141.753906 70.773438 C 140.640625 72.648438 140.382812 74.792969 140.859375 76.757812 " fill-opacity="1" fill-rule="evenodd"/><path fill="#869677" d="M 136.960938 77.671875 C 134.78125 77.40625 132.699219 76.320312 131.214844 74.46875 C 129.738281 72.617188 129.132812 70.347656 129.351562 68.160156 C 131.535156 68.425781 133.613281 69.515625 135.097656 71.367188 C 136.578125 73.214844 137.179688 75.488281 136.960938 77.671875 " fill-opacity="1" fill-rule="evenodd"/><path fill="#4e8824" d="M 138.652344 71.667969 C 137.019531 69.886719 136.050781 67.488281 136.132812 64.878906 C 136.21875 62.265625 137.335938 59.933594 139.082031 58.257812 C 140.71875 60.039062 141.6875 62.441406 141.601562 65.050781 C 141.519531 67.664062 140.402344 69.996094 138.652344 71.667969 " fill-opacity="1" fill-rule="evenodd"/><path fill="#4e8824" d="M 129.195312 115.023438 C 129.023438 116.441406 128.316406 117.796875 127.113281 118.757812 C 125.910156 119.71875 124.433594 120.113281 123.015625 119.96875 C 123.1875 118.550781 123.894531 117.199219 125.097656 116.238281 C 126.300781 115.273438 127.773438 114.882812 129.195312 115.023438 " fill-opacity="1" fill-rule="evenodd"/><path fill="#869677" d="M 121.117188 116.0625 C 120.945312 117.480469 120.238281 118.832031 119.035156 119.796875 C 117.828125 120.757812 116.355469 121.148438 114.933594 121.007812 C 115.105469 119.589844 115.8125 118.238281 117.015625 117.273438 C 118.222656 116.3125 119.695312 115.921875 121.117188 116.0625 " fill-opacity="1" fill-rule="evenodd"/><path fill="#4e8824" d="M 126.414062 111.367188 C 126.238281 109.949219 125.53125 108.597656 124.328125 107.632812 C 123.128906 106.671875 121.652344 106.28125 120.230469 106.421875 C 120.402344 107.839844 121.109375 109.191406 122.3125 110.152344 C 123.515625 111.117188 124.992188 111.507812 126.414062 111.367188 " fill-opacity="1" fill-rule="evenodd"/><path fill="#869677" d="M 115.835938 112.378906 C 116.875 110.667969 117.273438 108.5625 116.785156 106.457031 C 116.296875 104.351562 115.015625 102.640625 113.328125 101.558594 C 112.285156 103.269531 111.890625 105.375 112.375 107.480469 C 112.863281 109.585938 114.148438 111.296875 115.835938 112.378906 " fill-opacity="1" fill-rule="evenodd"/><path fill="#4e8824" d="M 114.179688 115.386719 C 113.054688 114.503906 111.597656 114.046875 110.066406 114.214844 C 108.535156 114.386719 107.214844 115.152344 106.3125 116.257812 C 107.4375 117.140625 108.894531 117.597656 110.421875 117.425781 C 111.953125 117.257812 113.277344 116.488281 114.179688 115.386719 " fill-opacity="1" fill-rule="evenodd"/><path fill="#4e8824" d="M 104.316406 93.078125 C 103.105469 95.214844 102.699219 97.804688 103.375 100.359375 C 104.050781 102.921875 105.6875 104.96875 107.792969 106.226562 C 109.003906 104.09375 109.414062 101.503906 108.738281 98.945312 C 108.058594 96.382812 106.421875 94.335938 104.316406 93.078125 " fill-opacity="1" fill-rule="evenodd"/><path fill="#869677" d="M 99.609375 112.144531 C 100.625 110.917969 102.097656 110.074219 103.804688 109.894531 C 105.511719 109.71875 107.128906 110.234375 108.375 111.222656 C 107.363281 112.449219 105.886719 113.292969 104.179688 113.46875 C 102.476562 113.648438 100.855469 113.128906 99.609375 112.144531 " fill-opacity="1" fill-rule="evenodd"/><path fill="#4e8824" d="M 96.730469 105.117188 C 97.4375 106.417969 98.636719 107.453125 100.164062 107.921875 C 101.695312 108.390625 103.269531 108.203125 104.582031 107.523438 C 103.875 106.222656 102.675781 105.1875 101.148438 104.71875 C 99.617188 104.25 98.042969 104.4375 96.730469 105.117188 " fill-opacity="1" fill-rule="evenodd"/><path fill="#869677" d="M 118.050781 99.265625 C 118.667969 100.976562 119.933594 102.460938 121.703125 103.316406 C 123.476562 104.171875 125.421875 104.242188 127.148438 103.660156 C 126.53125 101.945312 125.265625 100.464844 123.496094 99.605469 C 121.726562 98.75 119.777344 98.683594 118.050781 99.265625 " fill-opacity="1" fill-rule="evenodd"/><path fill="#4e8824" d="M 115.929688 89.253906 C 116.792969 91.386719 118.460938 93.195312 120.734375 94.1875 C 123.007812 95.179688 125.46875 95.167969 127.617188 94.351562 C 126.753906 92.222656 125.085938 90.410156 122.8125 89.421875 C 120.539062 88.429688 118.078125 88.4375 115.929688 89.253906 " fill-opacity="1" fill-rule="evenodd"/><path fill="#4e8824" d="M 124.222656 69.261719 C 125.804688 70.796875 126.808594 72.929688 126.871094 75.308594 C 126.929688 77.683594 126.035156 79.863281 124.535156 81.476562 C 122.957031 79.941406 121.949219 77.8125 121.890625 75.433594 C 121.828125 73.054688 122.722656 70.875 124.222656 69.261719 " fill-opacity="1" fill-rule="evenodd"/><path fill="#869677" d="M 111.933594 83.25 C 113.375 82.007812 115.285156 81.308594 117.332031 81.4375 C 119.375 81.566406 121.179688 82.503906 122.453125 83.914062 C 121.011719 85.15625 119.101562 85.855469 117.054688 85.726562 C 115.007812 85.59375 113.207031 84.660156 111.933594 83.25 " fill-opacity="1" fill-rule="evenodd"/><path fill="#869677" d="M 133.980469 105.890625 C 133.410156 104.585938 133.328125 103.058594 133.871094 101.617188 C 134.417969 100.175781 135.488281 99.085938 136.78125 98.484375 C 137.355469 99.792969 137.4375 101.320312 136.890625 102.757812 C 136.347656 104.199219 135.277344 105.289062 133.980469 105.890625 " fill-opacity="1" fill-rule="evenodd"/><path fill="#869677" d="M 129.464844 146.425781 C 130.824219 145.421875 131.808594 143.902344 132.101562 142.09375 C 132.390625 140.292969 131.933594 138.539062 130.957031 137.15625 C 129.59375 138.164062 128.609375 139.683594 128.320312 141.488281 C 128.027344 143.289062 128.488281 145.042969 129.464844 146.425781 " fill-opacity="1" fill-rule="evenodd"/><path fill="#4e8824" d="M 134.933594 141.636719 C 134.441406 140.714844 134.292969 139.609375 134.609375 138.527344 C 134.921875 137.445312 135.636719 136.585938 136.546875 136.074219 C 137.042969 136.992188 137.1875 138.101562 136.875 139.183594 C 136.5625 140.265625 135.84375 141.121094 134.933594 141.636719 " fill-opacity="1" fill-rule="evenodd"/><path fill="#4e8824" d="M 120.648438 136.816406 C 121.515625 135.648438 122.820312 134.804688 124.371094 134.550781 C 125.921875 134.300781 127.425781 134.699219 128.613281 135.535156 C 127.75 136.703125 126.441406 137.550781 124.894531 137.800781 C 123.34375 138.050781 121.839844 137.65625 120.648438 136.816406 " fill-opacity="1" fill-rule="evenodd"/><path fill="#869677" d="M 127.078125 130.832031 C 128.183594 130.339844 129.476562 130.257812 130.707031 130.710938 C 131.929688 131.164062 132.863281 132.0625 133.382812 133.160156 C 132.277344 133.65625 130.980469 133.734375 129.757812 133.28125 C 128.527344 132.828125 127.597656 131.929688 127.078125 130.832031 " fill-opacity="1" fill-rule="evenodd"/><path fill="#4e8824" d="M 123.277344 131.574219 C 122.742188 130.617188 122.566406 129.464844 122.875 128.324219 C 123.179688 127.183594 123.917969 126.269531 124.859375 125.714844 C 125.394531 126.671875 125.570312 127.828125 125.261719 128.96875 C 124.953125 130.109375 124.21875 131.019531 123.277344 131.574219 " fill-opacity="1" fill-rule="evenodd"/><path fill="#869677" d="M 164.652344 113.433594 C 163.148438 112.660156 161.351562 112.453125 159.605469 112.988281 C 157.855469 113.53125 156.488281 114.714844 155.683594 116.203125 C 157.191406 116.976562 158.988281 117.1875 160.734375 116.648438 C 162.476562 116.109375 163.847656 114.921875 164.652344 113.433594 " fill-opacity="1" fill-rule="evenodd"/><path fill="#4e8824" d="M 148.132812 99.390625 C 146.675781 99.855469 145.394531 100.871094 144.625 102.324219 C 143.859375 103.78125 143.738281 105.414062 144.175781 106.878906 C 145.628906 106.410156 146.910156 105.398438 147.679688 103.941406 C 148.449219 102.480469 148.5625 100.855469 148.132812 99.390625 " fill-opacity="1" fill-rule="evenodd"/><path fill="#4e8824" d="M 150.664062 108.007812 C 149.378906 108.957031 148.449219 110.386719 148.171875 112.09375 C 147.898438 113.796875 148.328125 115.449219 149.25 116.757812 C 150.535156 115.808594 151.464844 114.375 151.742188 112.667969 C 152.015625 110.96875 151.585938 109.3125 150.664062 108.007812 " fill-opacity="1" fill-rule="evenodd"/><path fill="#4e8824" d="M 144.871094 89.28125 C 145.066406 90.574219 145.746094 91.800781 146.878906 92.652344 C 148.003906 93.503906 149.371094 93.828125 150.667969 93.660156 C 150.472656 92.363281 149.792969 91.140625 148.664062 90.289062 C 147.535156 89.433594 146.171875 89.113281 144.871094 89.28125 " fill-opacity="1" fill-rule="evenodd"/><path fill="#4e8824" d="M 156.035156 82.941406 C 154.679688 83.644531 153.585938 84.859375 153.074219 86.425781 C 152.558594 87.992188 152.714844 89.617188 153.390625 90.984375 C 154.746094 90.28125 155.839844 89.070312 156.351562 87.503906 C 156.867188 85.9375 156.707031 84.3125 156.035156 82.941406 " fill-opacity="1" fill-rule="evenodd"/><path fill="#4e8824" d="M 158.449219 88.699219 C 157.335938 89.277344 156.441406 90.273438 156.015625 91.5625 C 155.59375 92.847656 155.726562 94.179688 156.277344 95.308594 C 157.390625 94.730469 158.285156 93.730469 158.710938 92.449219 C 159.132812 91.160156 159.003906 89.824219 158.449219 88.699219 " fill-opacity="1" fill-rule="evenodd"/><path fill="#869677" d="M 147.574219 96.503906 C 148.769531 96.125 150.109375 96.195312 151.316406 96.804688 C 152.527344 97.417969 153.375 98.453125 153.78125 99.640625 C 152.585938 100.019531 151.246094 99.949219 150.039062 99.335938 C 148.828125 98.726562 147.976562 97.691406 147.574219 96.503906 " fill-opacity="1" fill-rule="evenodd"/><path fill="#869677" d="M 151.414062 79.105469 C 150.472656 79.941406 149.847656 81.128906 149.753906 82.480469 C 149.660156 83.828125 150.113281 85.089844 150.929688 86.046875 C 151.863281 85.210938 152.488281 84.027344 152.585938 82.675781 C 152.679688 81.324219 152.226562 80.0625 151.414062 79.105469 " fill-opacity="1" fill-rule="evenodd"/><path fill="#4e8824" d="M 157.003906 75.089844 C 156.597656 73.347656 155.535156 71.753906 153.90625 70.710938 C 152.277344 69.671875 150.382812 69.378906 148.628906 69.746094 C 149.03125 71.492188 150.09375 73.085938 151.726562 74.125 C 153.355469 75.164062 155.25 75.457031 157.003906 75.089844 " fill-opacity="1" fill-rule="evenodd"/><path fill="#869677" d="M 154.929688 65.351562 C 153.949219 64.59375 153.253906 63.472656 153.066406 62.148438 C 152.882812 60.828125 153.238281 59.554688 153.972656 58.558594 C 154.953125 59.3125 155.648438 60.4375 155.835938 61.757812 C 156.023438 63.082031 155.664062 64.355469 154.929688 65.351562 " fill-opacity="1" fill-rule="evenodd"/><path fill="#869677" d="M 166.273438 78.839844 C 167.933594 78.320312 169.402344 77.175781 170.292969 75.519531 C 171.179688 73.863281 171.324219 72.007812 170.839844 70.332031 C 169.175781 70.855469 167.710938 72 166.820312 73.65625 C 165.929688 75.3125 165.789062 77.167969 166.273438 78.839844 " fill-opacity="1" fill-rule="evenodd"/><path fill="#4e8824" d="M 170.828125 117.28125 C 169.640625 116.675781 168.226562 116.507812 166.851562 116.933594 C 165.476562 117.359375 164.402344 118.289062 163.765625 119.464844 C 164.949219 120.074219 166.367188 120.238281 167.742188 119.8125 C 169.113281 119.390625 170.191406 118.453125 170.828125 117.28125 " fill-opacity="1" fill-rule="evenodd"/><path fill="#869677" d="M 136.582031 114.714844 C 136.433594 115.902344 135.84375 117.035156 134.839844 117.839844 C 133.832031 118.644531 132.597656 118.972656 131.410156 118.851562 C 131.554688 117.667969 132.144531 116.535156 133.152344 115.730469 C 134.160156 114.925781 135.390625 114.597656 136.582031 114.714844 " fill-opacity="1" fill-rule="evenodd"/><path fill="#4e8824" d="M 142.507812 119.371094 C 141.792969 120.539062 140.636719 121.4375 139.203125 121.800781 C 137.765625 122.164062 136.324219 121.917969 135.136719 121.226562 C 135.855469 120.058594 137.007812 119.15625 138.441406 118.796875 C 139.878906 118.433594 141.320312 118.679688 142.507812 119.371094 " fill-opacity="1" fill-rule="evenodd"/><g clip-path="url(#e53e824dba)"><path fill="#4e8824" d="M 191.601562 55.578125 C 189.46875 55.085938 187.519531 53.785156 186.25 51.796875 C 184.976562 49.800781 184.617188 47.488281 185.066406 45.34375 C 187.199219 45.839844 189.148438 47.136719 190.421875 49.128906 C 191.695312 51.121094 192.050781 53.433594 191.601562 55.578125 " fill-opacity="1" fill-rule="evenodd"/></g><path fill="#869677" d="M 195.722656 56.527344 C 197.855469 56.03125 199.804688 54.734375 201.078125 52.738281 C 202.347656 50.75 202.703125 48.4375 202.257812 46.292969 C 200.125 46.785156 198.175781 48.082031 196.902344 50.078125 C 195.628906 52.070312 195.273438 54.382812 195.722656 56.527344 " fill-opacity="1" fill-rule="evenodd"/><path fill="#4e8824" d="M 178.101562 73.890625 C 176.558594 72.335938 175.59375 70.203125 175.574219 67.839844 C 175.554688 65.476562 176.480469 63.324219 178 61.746094 C 179.542969 63.296875 180.503906 65.429688 180.527344 67.796875 C 180.546875 70.160156 179.621094 72.308594 178.101562 73.890625 " fill-opacity="1" fill-rule="evenodd"/><path fill="#869677" d="M 201.589844 68.769531 C 199.542969 67.988281 197.199219 67.972656 195.03125 68.914062 C 192.863281 69.851562 191.273438 71.570312 190.445312 73.597656 C 192.492188 74.382812 194.832031 74.394531 197 73.457031 C 199.171875 72.515625 200.761719 70.796875 201.589844 68.769531 " fill-opacity="1" fill-rule="evenodd"/><path fill="#869677" d="M 178.925781 84.359375 C 178.117188 86.074219 176.667969 87.484375 174.753906 88.195312 C 172.839844 88.90625 170.820312 88.789062 169.089844 88.019531 C 169.898438 86.308594 171.347656 84.898438 173.261719 84.183594 C 175.171875 83.472656 177.195312 83.589844 178.925781 84.359375 " fill-opacity="1" fill-rule="evenodd"/><path fill="#4e8824" d="M 176.765625 91.671875 C 176.753906 93.863281 175.917969 96.050781 174.253906 97.730469 C 172.589844 99.410156 170.410156 100.265625 168.222656 100.300781 C 168.234375 98.109375 169.074219 95.925781 170.734375 94.246094 C 172.398438 92.566406 174.578125 91.707031 176.765625 91.671875 " fill-opacity="1" fill-rule="evenodd"/><path fill="#869677" d="M 176.984375 99.894531 C 177.753906 101.328125 177.988281 103.050781 177.5 104.738281 C 177.011719 106.425781 175.894531 107.757812 174.480469 108.558594 C 173.710938 107.128906 173.480469 105.402344 173.964844 103.714844 C 174.453125 102.03125 175.570312 100.699219 176.984375 99.894531 " fill-opacity="1" fill-rule="evenodd"/><path fill="#4e8824" d="M 188.796875 79.464844 C 187.613281 80.5625 186.023438 81.21875 184.285156 81.175781 C 182.542969 81.132812 180.984375 80.402344 179.859375 79.246094 C 181.039062 78.148438 182.632812 77.492188 184.371094 77.535156 C 186.109375 77.574219 187.667969 78.308594 188.796875 79.464844 " fill-opacity="1" fill-rule="evenodd"/><path fill="#4e8824" d="M 174.84375 46.296875 C 174.570312 48.113281 173.609375 49.828125 172.027344 51.015625 C 170.445312 52.210938 168.535156 52.65625 166.714844 52.421875 C 166.988281 50.609375 167.945312 48.894531 169.527344 47.703125 C 171.113281 46.511719 173.023438 46.0625 174.84375 46.296875 " fill-opacity="1" fill-rule="evenodd"/><path fill="#869677" d="M 175.410156 55.011719 C 174.625 57.246094 173.003906 59.183594 170.71875 60.316406 C 168.433594 61.445312 165.90625 61.554688 163.65625 60.824219 C 164.441406 58.59375 166.0625 56.65625 168.347656 55.523438 C 170.636719 54.394531 173.160156 54.28125 175.410156 55.011719 " fill-opacity="1" fill-rule="evenodd"/><path fill="#869677" d="M 161.710938 56.492188 C 162.6875 55.484375 163.285156 54.109375 163.28125 52.59375 C 163.273438 51.082031 162.664062 49.710938 161.675781 48.710938 C 160.699219 49.71875 160.101562 51.09375 160.109375 52.609375 C 160.113281 54.121094 160.726562 55.492188 161.710938 56.492188 " fill-opacity="1" fill-rule="evenodd"/><path fill="#4e8824" d="M 196.03125 104.761719 C 196.40625 106.722656 196.042969 108.828125 194.851562 110.625 C 193.65625 112.421875 191.859375 113.574219 189.902344 113.992188 C 189.53125 112.027344 189.890625 109.921875 191.085938 108.125 C 192.277344 106.328125 194.078125 105.179688 196.03125 104.761719 " fill-opacity="1" fill-rule="evenodd"/><path fill="#4e8824" d="M 221.652344 59.542969 C 219.75 58.867188 218.097656 57.472656 217.136719 55.511719 C 216.179688 53.554688 216.09375 51.394531 216.726562 49.472656 C 218.632812 50.148438 220.285156 51.546875 221.242188 53.503906 C 222.203125 55.460938 222.289062 57.625 221.652344 59.542969 " fill-opacity="1" fill-rule="evenodd"/><path fill="#4e8824" d="M 224.550781 64.386719 C 226.574219 64.34375 228.582031 63.546875 230.109375 61.988281 C 231.636719 60.433594 232.402344 58.410156 232.40625 56.386719 C 230.382812 56.429688 228.375 57.230469 226.847656 58.785156 C 225.320312 60.34375 224.558594 62.367188 224.550781 64.386719 " fill-opacity="1" fill-rule="evenodd"/><path fill="#4e8824" d="M 221.195312 68.304688 C 219.304688 67.914062 217.554688 66.8125 216.390625 65.082031 C 215.222656 63.351562 214.855469 61.316406 215.203125 59.417969 C 217.101562 59.808594 218.847656 60.910156 220.011719 62.640625 C 221.179688 64.367188 221.542969 66.402344 221.195312 68.304688 " fill-opacity="1" fill-rule="evenodd"/><path fill="#4e8824" d="M 220.1875 77.078125 C 218.246094 76.675781 216.449219 75.542969 215.253906 73.769531 C 214.058594 71.992188 213.683594 69.90625 214.039062 67.957031 C 215.984375 68.359375 217.777344 69.488281 218.972656 71.261719 C 220.167969 73.039062 220.546875 75.125 220.1875 77.078125 " fill-opacity="1" fill-rule="evenodd"/><path fill="#4e8824" d="M 211.640625 85.84375 C 209.921875 84.359375 208.753906 82.222656 208.546875 79.777344 C 208.339844 77.328125 209.128906 75.027344 210.578125 73.269531 C 212.300781 74.757812 213.46875 76.894531 213.671875 79.339844 C 213.882812 81.789062 213.089844 84.089844 211.640625 85.84375 " fill-opacity="1" fill-rule="evenodd"/><path fill="#869677" d="M 204.8125 72.894531 C 206.730469 72.445312 208.480469 71.277344 209.625 69.488281 C 210.765625 67.695312 211.082031 65.617188 210.679688 63.6875 C 208.761719 64.136719 207.011719 65.304688 205.867188 67.09375 C 204.726562 68.886719 204.40625 70.964844 204.8125 72.894531 " fill-opacity="1" fill-rule="evenodd"/><path fill="#869677" d="M 278.550781 140.65625 C 278.921875 138.183594 278.363281 135.566406 276.78125 133.378906 C 275.199219 131.191406 272.890625 129.835938 270.425781 129.414062 C 270.058594 131.886719 270.613281 134.5 272.195312 136.691406 C 273.777344 138.878906 276.085938 140.230469 278.550781 140.65625 " fill-opacity="1" fill-rule="evenodd"/><path fill="#869677" d="M 257.550781 146.941406 C 259.183594 145.738281 260.363281 143.917969 260.710938 141.757812 C 261.058594 139.597656 260.507812 137.5 259.339844 135.839844 C 257.710938 137.046875 256.53125 138.867188 256.183594 141.027344 C 255.832031 143.1875 256.382812 145.285156 257.550781 146.941406 " fill-opacity="1" fill-rule="evenodd"/><path fill="#4e8824" d="M 260.042969 132.75 C 261.105469 133.707031 262.527344 134.261719 264.066406 134.199219 C 265.605469 134.136719 266.976562 133.464844 267.957031 132.421875 C 266.894531 131.46875 265.472656 130.910156 263.933594 130.972656 C 262.394531 131.039062 261.023438 131.710938 260.042969 132.75 " fill-opacity="1" fill-rule="evenodd"/><path fill="#4e8824" d="M 269.324219 118.675781 C 270.175781 120.21875 270.445312 122.085938 269.933594 123.921875 C 269.425781 125.753906 268.230469 127.214844 266.703125 128.097656 C 265.851562 126.554688 265.582031 124.6875 266.089844 122.855469 C 266.601562 121.019531 267.796875 119.558594 269.324219 118.675781 " fill-opacity="1" fill-rule="evenodd"/><g clip-path="url(#4115315c9f)"><path fill="#4e8824" d="M 273.558594 125.660156 C 274.449219 127.707031 276.109375 129.421875 278.34375 130.328125 C 280.574219 131.234375 282.964844 131.167969 285.03125 130.320312 C 284.136719 128.273438 282.476562 126.558594 280.246094 125.652344 C 278.011719 124.742188 275.625 124.8125 273.558594 125.660156 " fill-opacity="1" fill-rule="evenodd"/></g><path fill="#869677" d="M 275.765625 122.238281 C 275.226562 120.375 275.390625 118.308594 276.382812 116.464844 C 277.371094 114.625 279.007812 113.351562 280.859375 112.769531 C 281.394531 114.632812 281.234375 116.699219 280.242188 118.542969 C 279.25 120.386719 277.617188 121.660156 275.765625 122.238281 " fill-opacity="1" fill-rule="evenodd"/><path fill="#4e8824" d="M 267.121094 139.324219 C 268.480469 139.761719 269.679688 140.703125 270.40625 142.066406 C 271.125 143.425781 271.238281 144.949219 270.835938 146.320312 C 269.472656 145.886719 268.273438 144.941406 267.550781 143.578125 C 266.832031 142.21875 266.71875 140.695312 267.121094 139.324219 " fill-opacity="1" fill-rule="evenodd"/><path fill="#869677" d="M 234.21875 96.445312 C 236.230469 96.613281 238.308594 96.027344 239.996094 94.640625 C 241.675781 93.25 242.648438 91.320312 242.859375 89.308594 C 240.847656 89.136719 238.765625 89.726562 237.082031 91.113281 C 235.402344 92.503906 234.433594 94.4375 234.21875 96.445312 " fill-opacity="1" fill-rule="evenodd"/><path fill="#4e8824" d="M 237.007812 85.832031 C 239 86.199219 241.125 85.8125 242.933594 84.59375 C 244.742188 83.375 245.894531 81.546875 246.304688 79.566406 C 244.3125 79.203125 242.1875 79.585938 240.378906 80.804688 C 238.570312 82.023438 237.417969 83.851562 237.007812 85.832031 " fill-opacity="1" fill-rule="evenodd"/><path fill="#869677" d="M 232.59375 87.898438 C 230.78125 87.007812 229.300781 85.433594 228.574219 83.375 C 227.847656 81.320312 228.011719 79.164062 228.863281 77.328125 C 230.679688 78.222656 232.160156 79.796875 232.886719 81.851562 C 233.609375 83.914062 233.445312 86.066406 232.59375 87.898438 " fill-opacity="1" fill-rule="evenodd"/><path fill="#4e8824" d="M 234.15625 76.757812 C 232.207031 76.238281 230.449219 74.980469 229.335938 73.101562 C 228.222656 71.226562 227.964844 69.078125 228.445312 67.117188 C 230.398438 67.640625 232.15625 68.894531 233.269531 70.773438 C 234.378906 72.648438 234.636719 74.792969 234.15625 76.757812 " fill-opacity="1" fill-rule="evenodd"/><path fill="#869677" d="M 238.058594 77.671875 C 240.238281 77.40625 242.324219 76.320312 243.804688 74.46875 C 245.285156 72.617188 245.886719 70.347656 245.667969 68.160156 C 243.488281 68.425781 241.40625 69.515625 239.925781 71.367188 C 238.445312 73.214844 237.839844 75.488281 238.058594 77.671875 " fill-opacity="1" fill-rule="evenodd"/><path fill="#4e8824" d="M 236.367188 71.667969 C 238.003906 69.886719 238.972656 67.488281 238.886719 64.878906 C 238.800781 62.265625 237.683594 59.933594 235.9375 58.257812 C 234.300781 60.039062 233.335938 62.441406 233.417969 65.050781 C 233.503906 67.664062 234.621094 69.996094 236.367188 71.667969 " fill-opacity="1" fill-rule="evenodd"/><path fill="#4e8824" d="M 245.824219 115.023438 C 245.996094 116.441406 246.703125 117.796875 247.90625 118.757812 C 249.109375 119.71875 250.585938 120.113281 252.007812 119.96875 C 251.832031 118.550781 251.128906 117.199219 249.925781 116.238281 C 248.71875 115.273438 247.246094 114.882812 245.824219 115.023438 " fill-opacity="1" fill-rule="evenodd"/><path fill="#869677" d="M 253.90625 116.0625 C 254.074219 117.480469 254.785156 118.832031 255.988281 119.796875 C 257.191406 120.757812 258.664062 121.148438 260.085938 121.007812 C 259.910156 119.589844 259.207031 118.238281 258.003906 117.273438 C 256.800781 116.3125 255.324219 115.921875 253.90625 116.0625 " fill-opacity="1" fill-rule="evenodd"/><path fill="#869677" d="M 248.605469 111.367188 C 248.78125 109.949219 249.488281 108.597656 250.691406 107.632812 C 251.894531 106.671875 253.371094 106.28125 254.789062 106.421875 C 254.617188 107.839844 253.910156 109.191406 252.707031 110.152344 C 251.503906 111.117188 250.03125 111.507812 248.605469 111.367188 " fill-opacity="1" fill-rule="evenodd"/><path fill="#4e8824" d="M 259.1875 112.378906 C 258.144531 110.667969 257.746094 108.5625 258.234375 106.457031 C 258.722656 104.351562 260.003906 102.640625 261.691406 101.558594 C 262.730469 103.269531 263.132812 105.375 262.644531 107.480469 C 262.15625 109.585938 260.871094 111.296875 259.1875 112.378906 " fill-opacity="1" fill-rule="evenodd"/><path fill="#4e8824" d="M 260.84375 115.386719 C 261.964844 114.503906 263.421875 114.046875 264.957031 114.214844 C 266.484375 114.386719 267.804688 115.152344 268.710938 116.257812 C 267.585938 117.140625 266.128906 117.597656 264.597656 117.425781 C 263.066406 117.257812 261.742188 116.488281 260.84375 115.386719 " fill-opacity="1" fill-rule="evenodd"/><path fill="#869677" d="M 270.703125 93.078125 C 271.914062 95.214844 272.324219 97.804688 271.644531 100.359375 C 270.96875 102.921875 269.332031 104.96875 267.226562 106.226562 C 266.019531 104.09375 265.605469 101.503906 266.285156 98.945312 C 266.960938 96.382812 268.597656 94.335938 270.703125 93.078125 " fill-opacity="1" fill-rule="evenodd"/><path fill="#869677" d="M 275.410156 112.144531 C 274.398438 110.917969 272.921875 110.074219 271.21875 109.894531 C 269.507812 109.71875 267.890625 110.234375 266.644531 111.222656 C 267.660156 112.449219 269.136719 113.292969 270.839844 113.46875 C 272.546875 113.648438 274.164062 113.128906 275.410156 112.144531 " fill-opacity="1" fill-rule="evenodd"/><path fill="#4e8824" d="M 278.292969 105.117188 C 277.582031 106.417969 276.382812 107.453125 274.855469 107.921875 C 273.328125 108.390625 271.753906 108.203125 270.4375 107.523438 C 271.148438 106.222656 272.347656 105.1875 273.875 104.71875 C 275.402344 104.25 276.976562 104.4375 278.292969 105.117188 " fill-opacity="1" fill-rule="evenodd"/><path fill="#4e8824" d="M 256.96875 99.265625 C 256.351562 100.976562 255.089844 102.460938 253.316406 103.316406 C 251.542969 104.171875 249.597656 104.242188 247.871094 103.660156 C 248.488281 101.945312 249.753906 100.464844 251.523438 99.605469 C 253.296875 98.75 255.242188 98.683594 256.96875 99.265625 " fill-opacity="1" fill-rule="evenodd"/><path fill="#869677" d="M 259.089844 89.253906 C 258.226562 91.386719 256.5625 93.195312 254.285156 94.1875 C 252.011719 95.179688 249.554688 95.167969 247.402344 94.351562 C 248.269531 92.222656 249.933594 90.410156 252.210938 89.421875 C 254.480469 88.429688 256.941406 88.4375 259.089844 89.253906 " fill-opacity="1" fill-rule="evenodd"/><path fill="#869677" d="M 250.796875 69.261719 C 249.214844 70.796875 248.210938 72.929688 248.148438 75.308594 C 248.089844 77.683594 248.984375 79.863281 250.484375 81.476562 C 252.066406 79.941406 253.070312 77.8125 253.128906 75.433594 C 253.191406 73.054688 252.296875 70.875 250.796875 69.261719 " fill-opacity="1" fill-rule="evenodd"/><path fill="#4e8824" d="M 263.085938 83.25 C 261.644531 82.007812 259.738281 81.308594 257.691406 81.4375 C 255.644531 81.566406 253.839844 82.503906 252.570312 83.914062 C 254.007812 85.15625 255.917969 85.855469 257.964844 85.726562 C 260.011719 85.59375 261.8125 84.660156 263.085938 83.25 " fill-opacity="1" fill-rule="evenodd"/><path fill="#4e8824" d="M 241.039062 105.890625 C 241.609375 104.585938 241.691406 103.058594 241.148438 101.617188 C 240.601562 100.175781 239.535156 99.085938 238.238281 98.484375 C 237.664062 99.792969 237.582031 101.320312 238.128906 102.757812 C 238.671875 104.199219 239.746094 105.289062 241.039062 105.890625 " fill-opacity="1" fill-rule="evenodd"/><path fill="#4e8824" d="M 245.558594 146.425781 C 244.195312 145.421875 243.210938 143.902344 242.921875 142.09375 C 242.628906 140.292969 243.089844 138.539062 244.0625 137.15625 C 245.425781 138.164062 246.410156 139.683594 246.699219 141.488281 C 246.992188 143.289062 246.535156 145.042969 245.558594 146.425781 " fill-opacity="1" fill-rule="evenodd"/><path fill="#869677" d="M 240.085938 141.636719 C 240.578125 140.714844 240.726562 139.609375 240.414062 138.527344 C 240.101562 137.445312 239.382812 136.585938 238.472656 136.074219 C 237.980469 136.992188 237.832031 138.101562 238.144531 139.183594 C 238.460938 140.265625 239.175781 141.121094 240.085938 141.636719 " fill-opacity="1" fill-rule="evenodd"/><path fill="#869677" d="M 254.371094 136.816406 C 253.507812 135.648438 252.199219 134.804688 250.652344 134.550781 C 249.101562 134.300781 247.59375 134.699219 246.40625 135.535156 C 247.269531 136.703125 248.578125 137.550781 250.128906 137.800781 C 251.675781 138.050781 253.183594 137.65625 254.371094 136.816406 " fill-opacity="1" fill-rule="evenodd"/><path fill="#4e8824" d="M 247.945312 130.832031 C 246.835938 130.339844 245.542969 130.257812 244.316406 130.710938 C 243.089844 131.164062 242.15625 132.0625 241.640625 133.160156 C 242.746094 133.65625 244.039062 133.734375 245.265625 133.28125 C 246.492188 132.828125 247.425781 131.929688 247.945312 130.832031 " fill-opacity="1" fill-rule="evenodd"/><path fill="#869677" d="M 251.746094 131.574219 C 252.277344 130.617188 252.457031 129.464844 252.148438 128.324219 C 251.839844 127.183594 251.105469 126.269531 250.160156 125.714844 C 249.625 126.671875 249.449219 127.828125 249.757812 128.96875 C 250.066406 130.109375 250.800781 131.019531 251.746094 131.574219 " fill-opacity="1" fill-rule="evenodd"/><path fill="#4e8824" d="M 226.890625 99.390625 C 228.34375 99.855469 229.625 100.871094 230.394531 102.324219 C 231.164062 103.78125 231.28125 105.414062 230.847656 106.878906 C 229.390625 106.410156 228.109375 105.398438 227.34375 103.941406 C 226.574219 102.480469 226.457031 100.855469 226.890625 99.390625 " fill-opacity="1" fill-rule="evenodd"/><path fill="#869677" d="M 222.390625 104.988281 C 223.976562 106.15625 225.121094 107.921875 225.460938 110.019531 C 225.800781 112.117188 225.273438 114.15625 224.136719 115.765625 C 222.554688 114.597656 221.40625 112.832031 221.066406 110.730469 C 220.726562 108.636719 221.257812 106.59375 222.390625 104.988281 " fill-opacity="1" fill-rule="evenodd"/><path fill="#4e8824" d="M 230.148438 89.28125 C 229.957031 90.574219 229.273438 91.800781 228.144531 92.652344 C 227.015625 93.503906 225.652344 93.828125 224.351562 93.660156 C 224.546875 92.363281 225.226562 91.140625 226.359375 90.289062 C 227.484375 89.433594 228.851562 89.113281 230.148438 89.28125 " fill-opacity="1" fill-rule="evenodd"/><path fill="#869677" d="M 227.445312 96.503906 C 226.25 96.125 224.914062 96.195312 223.703125 96.804688 C 222.496094 97.417969 221.644531 98.453125 221.238281 99.640625 C 222.4375 100.019531 223.773438 99.949219 224.984375 99.335938 C 226.191406 98.726562 227.042969 97.691406 227.445312 96.503906 " fill-opacity="1" fill-rule="evenodd"/><path fill="#869677" d="M 238.441406 114.714844 C 238.585938 115.902344 239.175781 117.035156 240.179688 117.839844 C 241.1875 118.644531 242.421875 118.972656 243.609375 118.851562 C 243.464844 117.667969 242.875 116.535156 241.871094 115.730469 C 240.859375 114.925781 239.628906 114.597656 238.441406 114.714844 " fill-opacity="1" fill-rule="evenodd"/><path fill="#4e8824" d="M 232.511719 119.371094 C 233.226562 120.539062 234.382812 121.4375 235.820312 121.800781 C 237.253906 122.164062 238.695312 121.917969 239.882812 121.226562 C 239.167969 120.058594 238.011719 119.15625 236.578125 118.796875 C 235.140625 118.433594 233.699219 118.679688 232.511719 119.371094 " fill-opacity="1" fill-rule="evenodd"/><path fill="#869677" d="M 209.945312 103.1875 C 211.503906 102.71875 212.890625 101.664062 213.734375 100.128906 C 214.582031 98.589844 214.738281 96.859375 214.304688 95.292969 C 212.746094 95.761719 211.363281 96.816406 210.515625 98.351562 C 209.667969 99.890625 209.511719 101.621094 209.945312 103.1875 " fill-opacity="1" fill-rule="evenodd"/><path fill="#869677" d="M 215.570312 90.964844 C 216.855469 91.964844 218.515625 92.480469 220.257812 92.28125 C 222 92.082031 223.503906 91.207031 224.53125 89.945312 C 223.246094 88.949219 221.585938 88.429688 219.839844 88.628906 C 218.097656 88.828125 216.59375 89.703125 215.570312 90.964844 " fill-opacity="1" fill-rule="evenodd"/><path fill="#4e8824" d="M 212.792969 119.050781 C 214.371094 119.289062 216.042969 118.933594 217.441406 117.921875 C 218.84375 116.914062 219.707031 115.441406 219.980469 113.863281 C 218.398438 113.628906 216.726562 113.980469 215.328125 114.992188 C 213.929688 116 213.066406 117.476562 212.792969 119.050781 " fill-opacity="1" fill-rule="evenodd"/><g fill="#4e8824" fill-opacity="1"><g transform="translate(87.519262, 342.838558)"><g><path d="M 23.21875 -31.421875 L 23.21875 -25.28125 L 10.421875 -25.28125 L 10.421875 -18.65625 L 20 -18.65625 L 20 -12.703125 L 10.421875 -12.703125 L 10.421875 0 L 2.78125 0 L 2.78125 -31.421875 Z M 23.21875 -31.421875 "/></g></g></g><g fill="#4e8824" fill-opacity="1"><g transform="translate(122.060243, 342.838558)"><g><path d="M 22.328125 -5.546875 L 10.609375 -5.546875 L 8.71875 0 L 0.71875 0 L 12.078125 -31.421875 L 20.9375 -31.421875 L 32.3125 0 L 24.203125 0 Z M 20.359375 -11.453125 L 16.46875 -22.953125 L 12.625 -11.453125 Z M 20.359375 -11.453125 "/></g></g></g><g fill="#4e8824" fill-opacity="1"><g transform="translate(165.101633, 342.838558)"><g><path d="M 18.796875 0 L 12.265625 -11.859375 L 10.421875 -11.859375 L 10.421875 0 L 2.78125 0 L 2.78125 -31.421875 L 15.625 -31.421875 C 18.09375 -31.421875 20.195312 -30.984375 21.9375 -30.109375 C 23.6875 -29.242188 24.992188 -28.054688 25.859375 -26.546875 C 26.722656 -25.046875 27.15625 -23.375 27.15625 -21.53125 C 27.15625 -19.4375 26.566406 -17.566406 25.390625 -15.921875 C 24.210938 -14.285156 22.476562 -13.125 20.1875 -12.4375 L 27.4375 0 Z M 10.421875 -17.28125 L 15.171875 -17.28125 C 16.578125 -17.28125 17.628906 -17.617188 18.328125 -18.296875 C 19.023438 -18.984375 19.375 -19.957031 19.375 -21.21875 C 19.375 -22.40625 19.023438 -23.34375 18.328125 -24.03125 C 17.628906 -24.71875 16.578125 -25.0625 15.171875 -25.0625 L 10.421875 -25.0625 Z M 10.421875 -17.28125 "/></g></g></g><g fill="#4e8824" fill-opacity="1"><g transform="translate(204.340207, 342.838558)"><g><path d="M 38.34375 -31.421875 L 38.34375 0 L 30.703125 0 L 30.703125 -18.84375 L 23.671875 0 L 17.5 0 L 10.421875 -18.890625 L 10.421875 0 L 2.78125 0 L 2.78125 -31.421875 L 11.8125 -31.421875 L 20.625 -9.671875 L 29.359375 -31.421875 Z M 38.34375 -31.421875 "/></g></g></g><g fill="#4e8824" fill-opacity="1"><g transform="translate(255.479349, 342.838558)"><g><path d="M 22.015625 0 L 15.625 -9.625 L 9.984375 0 L 1.296875 0 L 11.359375 -15.96875 L 1.078125 -31.421875 L 9.984375 -31.421875 L 16.28125 -21.921875 L 21.84375 -31.421875 L 30.515625 -31.421875 L 20.546875 -15.578125 L 30.921875 0 Z M 22.015625 0 "/></g></g></g></svg>